<?xml version="1.0" encoding="utf-8"?>
<!-- Generator: Adobe Illustrator 15.1.0, SVG Export Plug-In . SVG Version: 6.00 Build 0)  -->
<!DOCTYPE svg PUBLIC "-//W3C//DTD SVG 1.1//EN" "http://www.w3.org/Graphics/SVG/1.1/DTD/svg11.dtd">
<svg version="1.1" id="Capa_1" xmlns="http://www.w3.org/2000/svg" xmlns:xlink="http://www.w3.org/1999/xlink" x="0px" y="0px"
	 width="1440px" height="3000px" viewBox="0 0 1440 3000" enable-background="new 0 0 1440 3000" xml:space="preserve">
<path fill="#FFFFFF" d="M1332.194,1390.027L750.071,934.64c-9.947-7.785-22.757-12.071-36.076-12.071
	c-13.316,0-26.123,4.289-36.067,12.068L95.806,1390.027c-22.821,17.849-17.969,38.462-15.936,44.353
	c2.025,5.89,10.91,25.116,39.88,25.116h115.875v560.929c0,29.045,23.625,52.67,52.667,52.67h272.616
	c29.042,0,52.668-23.625,52.668-52.67v-251.034H814.42v251.034c0,29.045,23.628,52.67,52.67,52.67h272.618
	c29.043,0,52.668-23.625,52.668-52.67v-560.929h115.872c28.973,0,37.85-19.227,39.881-25.116
	C1350.161,1428.489,1355.016,1407.876,1332.194,1390.027z M1181.845,1396.294c-29.047,0-52.673,23.625-52.673,52.668v560.929
	H877.624v-251.035c0-29.042-23.625-52.669-52.668-52.669H603.044c-29.044,0-52.67,23.627-52.67,52.669v251.035H298.826v-560.929
	c0-29.043-23.628-52.668-52.67-52.668H190.37l523.625-409.629l523.625,409.629H1181.845L1181.845,1396.294z"/>
</svg>
