<?xml version="1.0" encoding="utf-8"?>
<!-- Generator: Adobe Illustrator 15.1.0, SVG Export Plug-In . SVG Version: 6.00 Build 0)  -->
<!DOCTYPE svg PUBLIC "-//W3C//DTD SVG 1.1//EN" "http://www.w3.org/Graphics/SVG/1.1/DTD/svg11.dtd">
<svg version="1.1" id="Capa_1" xmlns="http://www.w3.org/2000/svg" xmlns:xlink="http://www.w3.org/1999/xlink" x="0px" y="0px"
	 width="1440px" height="1497.467px" viewBox="0 749.246 1440 1497.467" enable-background="new 0 749.246 1440 1497.467"
	 xml:space="preserve">
<path fill="#FFFFFF" d="M1206.502,2220h-314.88c-12.044,0-21.818-9.774-21.818-21.818v-444.218H570.152v444.218
	c0,12.044-9.774,21.818-21.817,21.818H233.367c-12.043,0-21.818-9.774-21.818-21.818v-724.669H31.854
	c-8.945,0-16.975-5.454-20.291-13.745c-3.272-8.291-1.178-17.76,5.28-23.913l688.059-649.876c8.422-7.986,21.556-7.942,30.021,0
	l688.232,649.876c6.458,6.152,8.553,15.622,5.28,23.913c-3.316,8.291-11.346,13.745-20.291,13.745H1228.32v724.669
	C1228.32,2210.226,1218.545,2220,1206.502,2220z M913.439,2176.363h271.244v-724.669c0-12.044,9.774-21.818,21.818-21.818h146.749
	L719.913,831.84L86.749,1429.876h146.618c12.044,0,21.818,9.774,21.818,21.818v724.669h271.331v-444.218
	c0-12.044,9.774-21.818,21.818-21.818h343.287c12.044,0,21.817,9.774,21.817,21.818V2176.363z"/>
</svg>
